<svg width="242" height="79" viewBox="0 0 242 79" fill="none" xmlns="http://www.w3.org/2000/svg">
<path d="M7.61272 47.8118C6.57272 47.8118 5.65272 47.6318 4.85272 47.2718C4.05271 46.8918 3.42271 46.3818 2.96271 45.7418C2.52271 45.1018 2.28271 44.4018 2.24271 43.6418C2.22271 43.3418 2.21271 42.6918 2.21271 41.6918H5.69272C5.69272 42.2518 5.71272 42.6618 5.75272 42.9218C5.77272 43.1618 5.87272 43.3318 6.05272 43.4318C6.25272 43.5118 6.55272 43.5518 6.95272 43.5518H10.0127C11.1527 43.5518 11.7227 43.2118 11.7227 42.5318C11.7227 42.4118 11.7127 42.3218 11.6927 42.2618L11.6027 41.9018L9.38272 33.1118L13.0727 32.0918L15.3227 40.9118C15.5827 41.9718 15.8127 42.6818 16.0127 43.0418C16.2327 43.3818 16.5827 43.5518 17.0627 43.5518H18.5327L18.7727 45.6818L18.5327 47.8118H17.0627C15.7427 47.8118 14.6527 47.3618 13.7927 46.4618C12.6927 47.3618 11.2627 47.8118 9.50272 47.8118H7.61272ZM18.2245 43.5518H22.8145C23.6545 43.5518 24.2745 43.4318 24.6745 43.1918C25.0945 42.9518 25.3045 42.5318 25.3045 41.9318C25.3045 41.6118 25.2445 41.2418 25.1245 40.8218L23.9545 36.3518L27.5845 35.2718L28.8445 39.9518C29.0445 40.6718 29.1445 41.3718 29.1445 42.0518C29.1445 43.2118 28.8745 44.2318 28.3345 45.1118C27.7945 45.9718 27.0445 46.6418 26.0845 47.1218C25.1245 47.5818 24.0345 47.8118 22.8145 47.8118H18.2245V43.5518ZM16.5445 50.4818H20.0245V53.9918H16.5445V50.4818ZM22.6945 50.4818H26.1745V53.9918H22.6945V50.4818ZM33.8306 51.3518C36.1906 50.8718 37.8506 50.4918 38.8106 50.2118C39.7706 49.9318 40.4306 49.6018 40.7906 49.2218C41.1506 48.8418 41.3206 48.2918 41.3006 47.5718C40.3806 47.7318 39.3106 47.8118 38.0906 47.8118C36.9706 47.8118 35.9706 47.5518 35.0906 47.0318C34.2106 46.5118 33.5206 45.7818 33.0206 44.8418C32.5406 43.9018 32.3006 42.8418 32.3006 41.6618C32.3006 40.4818 32.5506 39.3818 33.0506 38.3618C33.5706 37.3218 34.2806 36.4918 35.1806 35.8718C36.1006 35.2518 37.1206 34.9418 38.2406 34.9418C39.9406 34.9418 41.3606 35.5818 42.5006 36.8618C43.6406 38.1218 44.3206 39.7818 44.5406 41.8418L45.0506 46.7018C45.0906 47.0218 45.1106 47.4618 45.1106 48.0218C45.1106 49.5418 44.7606 50.7518 44.0606 51.6518C43.3606 52.5718 42.2806 53.3018 40.8206 53.8418C39.3606 54.4018 37.2806 54.9518 34.5806 55.4918L33.8306 51.3518ZM36.1106 41.6918C36.1106 42.9318 36.7706 43.5518 38.0906 43.5518C39.1106 43.5518 40.0406 43.4818 40.8806 43.3418L40.7906 42.3818C40.6906 41.3618 40.4206 40.5818 39.9806 40.0418C39.5406 39.4818 38.9806 39.2018 38.3006 39.2018C37.6206 39.2018 37.0806 39.4418 36.6806 39.9218C36.3006 40.4018 36.1106 40.9918 36.1106 41.6918ZM54.9567 47.8118C53.5167 47.8118 52.3667 47.5918 51.5067 47.1518C50.6667 46.7118 50.0467 46.0018 49.6467 45.0218C49.2467 44.0218 49.0067 42.6818 48.9267 41.0018L48.3867 27.2018L52.1667 27.0218L52.7067 41.0018C52.7467 41.8618 52.8067 42.4518 52.8867 42.7718C52.9867 43.0918 53.1767 43.3018 53.4567 43.4018C53.7367 43.5018 54.2367 43.5518 54.9567 43.5518H55.2567L55.4967 45.6818L55.2567 47.8118H54.9567ZM54.9628 43.5518H55.5928C57.4528 43.5518 59.0228 43.5118 60.3028 43.4318C61.5828 43.3518 62.8228 43.1418 64.0228 42.8018L69.6628 41.4518L64.8028 38.9918C64.3628 38.7518 63.8828 38.6318 63.3628 38.6318C62.8428 38.6318 62.3528 38.7618 61.8928 39.0218C61.4528 39.2618 61.1028 39.6218 60.8428 40.1018L60.3328 41.0618L57.0328 38.9918L57.6028 37.9118C58.2428 36.7718 59.0628 35.8918 60.0628 35.2718C61.0628 34.6518 62.1328 34.3418 63.2728 34.3418C64.4328 34.3418 65.5628 34.6518 66.6628 35.2718L74.2228 39.6518L73.6828 44.5718L64.9828 46.9118C63.5428 47.2918 62.0728 47.5418 60.5728 47.6618C59.0928 47.7618 57.4228 47.8118 55.5628 47.8118H54.9628V43.5518ZM62.6728 50.0918H66.6028V54.0518H62.6728V50.0918ZM89.7982 47.8718C88.7182 47.8718 87.7282 47.6018 86.8282 47.0618C85.9282 46.5018 85.2082 45.7518 84.6682 44.8118C84.1482 43.8718 83.8882 42.8518 83.8882 41.7518C83.8882 40.8118 84.1082 39.8718 84.5482 38.9318C85.0082 37.9718 85.6282 37.1018 86.4082 36.3218L86.9482 35.7818L86.1682 35.0318L88.7782 31.9718L92.7082 35.6318C93.7482 36.5918 94.4982 37.5518 94.9582 38.5118C95.4382 39.4718 95.6782 40.5518 95.6782 41.7518C95.6782 42.8518 95.4182 43.8718 94.8982 44.8118C94.3782 45.7518 93.6682 46.5018 92.7682 47.0618C91.8682 47.6018 90.8782 47.8718 89.7982 47.8718ZM87.5782 41.7518C87.5782 42.3118 87.7882 42.7818 88.2082 43.1618C88.6282 43.5418 89.1582 43.7318 89.7982 43.7318C90.4382 43.7318 90.9582 43.5418 91.3582 43.1618C91.7782 42.7818 91.9882 42.3118 91.9882 41.7518C91.9882 41.2918 91.8682 40.8618 91.6282 40.4618C91.3882 40.0418 90.8982 39.4818 90.1582 38.7818L89.7682 38.4218L89.2582 38.9318C88.6182 39.5718 88.1782 40.1018 87.9382 40.5218C87.6982 40.9218 87.5782 41.3318 87.5782 41.7518ZM100.393 51.3518C102.753 50.8718 104.413 50.4918 105.373 50.2118C106.333 49.9318 106.993 49.6018 107.353 49.2218C107.713 48.8418 107.883 48.2918 107.863 47.5718C106.943 47.7318 105.873 47.8118 104.653 47.8118C103.533 47.8118 102.533 47.5518 101.653 47.0318C100.773 46.5118 100.083 45.7818 99.5831 44.8418C99.1031 43.9018 98.8631 42.8418 98.8631 41.6618C98.8631 40.4818 99.1131 39.3818 99.6131 38.3618C100.133 37.3218 100.843 36.4918 101.743 35.8718C102.663 35.2518 103.683 34.9418 104.803 34.9418C106.503 34.9418 107.923 35.5818 109.063 36.8618C110.203 38.1218 110.883 39.7818 111.103 41.8418L111.613 46.7018C111.653 47.0218 111.673 47.4618 111.673 48.0218C111.673 49.5418 111.323 50.7518 110.623 51.6518C109.923 52.5718 108.843 53.3018 107.383 53.8418C105.923 54.4018 103.843 54.9518 101.143 55.4918L100.393 51.3518ZM102.673 41.6918C102.673 42.9318 103.333 43.5518 104.653 43.5518C105.673 43.5518 106.603 43.4818 107.443 43.3418L107.353 42.3818C107.253 41.3618 106.983 40.5818 106.543 40.0418C106.103 39.4818 105.543 39.2018 104.863 39.2018C104.183 39.2018 103.643 39.4418 103.243 39.9218C102.863 40.4018 102.673 40.9918 102.673 41.6918ZM115.909 30.2018L119.719 30.0218L120.379 47.7518L116.599 47.9318L115.909 30.2018ZM113.179 28.5518C113.179 27.6918 113.429 27.0018 113.929 26.4818C114.449 25.9418 115.119 25.6718 115.939 25.6718C116.079 25.6718 116.309 25.6918 116.629 25.7318L119.659 26.3018C119.759 26.3218 119.889 26.3318 120.049 26.3318C120.569 26.3318 120.829 26.1018 120.829 25.6418V25.4918L122.749 25.3718V26.0618C122.749 26.9218 122.489 27.6118 121.969 28.1318C121.469 28.6518 120.809 28.9118 119.989 28.9118C119.849 28.9118 119.619 28.8918 119.299 28.8518L116.269 28.2818C116.169 28.2618 116.039 28.2518 115.879 28.2518C115.359 28.2518 115.099 28.4918 115.099 28.9718V29.0918L113.179 29.2418V28.5518ZM131.466 47.8118C131.126 47.8118 130.876 47.8018 130.716 47.7818C130.796 49.7418 130.286 51.2618 129.186 52.3418C128.106 53.4418 126.406 54.3118 124.086 54.9518L122.226 55.4918L121.236 51.3818L123.096 50.8418C124.516 50.4618 125.506 50.0718 126.066 49.6718C126.646 49.2718 126.936 48.6618 126.936 47.8418C126.936 47.7018 126.916 47.4718 126.876 47.1518L125.676 38.5418L129.426 37.9718L129.636 39.5918C129.696 39.8518 129.836 40.6318 130.056 41.9318C130.176 42.5918 130.336 43.0318 130.536 43.2518C130.736 43.4518 131.046 43.5518 131.466 43.5518H131.616L131.856 45.6818L131.616 47.8118H131.466ZM140.968 55.3418C138.708 55.1218 136.948 54.4018 135.688 53.1818C134.448 51.9618 133.698 50.1718 133.438 47.8118H131.428V43.5518H133.708C134.268 41.4518 135.218 38.4918 136.558 34.6718L138.838 33.5018L141.028 34.1318C142.108 34.4318 142.968 35.1218 143.608 36.2018C144.248 37.2618 144.568 38.4418 144.568 39.7418C144.568 40.6618 144.388 41.5318 144.028 42.3518C143.748 42.9918 143.328 43.6418 142.768 44.3018C143.588 43.8018 144.478 43.5518 145.438 43.5518H146.398L146.638 45.6818L146.398 47.8118H145.618C145.118 47.8118 144.688 48.0118 144.328 48.4118C143.988 48.8118 143.788 49.3118 143.728 49.9118L143.428 52.7918L140.968 55.3418ZM136.978 47.4518C137.138 48.3318 137.478 49.0818 137.998 49.7018C138.518 50.3418 139.158 50.7318 139.918 50.8718L139.978 49.3718C140.118 47.8318 140.588 46.5518 141.388 45.5318C140.128 46.4518 138.658 47.0918 136.978 47.4518ZM137.578 43.4618C138.418 43.3218 139.128 43.0418 139.708 42.6218C140.288 42.1818 140.678 41.6718 140.878 41.0918C140.998 40.7518 141.058 40.4118 141.058 40.0718C141.058 39.6318 140.958 39.2418 140.758 38.9018C140.558 38.5618 140.298 38.3418 139.978 38.2418L139.348 38.0618C138.628 40.2018 138.038 42.0018 137.578 43.4618ZM146.105 43.5518H146.435C146.935 43.5518 147.375 43.4518 147.755 43.2518C148.155 43.0318 148.465 42.7418 148.685 42.3818L150.965 37.9118C151.405 37.0518 152.035 36.3818 152.855 35.9018C153.695 35.4218 154.595 35.1818 155.555 35.1818C156.455 35.1818 157.275 35.3818 158.015 35.7818C158.975 36.3018 159.685 36.9818 160.145 37.8218C160.625 38.6618 160.865 39.6218 160.865 40.7018C160.865 42.1818 160.465 43.7818 159.665 45.5018C159.305 46.2818 158.795 46.8918 158.135 47.3318C157.495 47.7518 156.795 47.9618 156.035 47.9618C155.415 47.9618 154.805 47.8118 154.205 47.5118L150.845 45.7718C149.665 47.1318 148.195 47.8118 146.435 47.8118H146.105V43.5518ZM156.485 43.8818C156.585 43.9418 156.645 43.9718 156.665 43.9718C156.705 43.9718 156.745 43.9318 156.785 43.8518L157.145 42.9518C157.405 42.3718 157.535 41.8118 157.535 41.2718C157.535 40.8318 157.445 40.4518 157.265 40.1318C157.085 39.7918 156.825 39.5418 156.485 39.3818C156.225 39.2418 155.935 39.1718 155.615 39.1718C155.255 39.1718 154.905 39.2818 154.565 39.5018C154.245 39.7018 153.985 40.0118 153.785 40.4318L152.945 42.1118L156.485 43.8818Z" fill="#675AE7"/>
<mask id="mask0_516_15220" style="mask-type:luminance" maskUnits="userSpaceOnUse" x="173" y="15" width="69" height="64">
<path d="M217.179 58.9853L209.794 63.2495V15.374L241.467 33.6608V58.9673L207.422 78.6235L173.377 58.9673V50.4391L207.422 70.0947L234.081 54.7032V37.9249L229.338 35.1867V51.965L221.952 56.2291V30.9226L217.179 28.1664V58.9853Z" fill="white"/>
</mask>
<g mask="url(#mask0_516_15220)">
<path d="M241.468 15.3741H173.378V78.6236H241.468V15.3741Z" fill="#675AE7"/>
</g>
<mask id="mask1_516_15220" style="mask-type:luminance" maskUnits="userSpaceOnUse" x="173" y="0" width="69" height="64">
<path d="M197.634 19.6562L205.02 15.3915V63.2315L173.377 44.9627V19.6562L207.422 0L241.467 19.6562V28.1845L207.422 8.52825L180.763 23.9203V40.6986L185.506 43.4368V26.6585L192.892 22.3938V47.7009L197.634 50.4391V19.6562Z" fill="white"/>
</mask>
<g mask="url(#mask1_516_15220)">
<path d="M241.468 0H173.378V63.2315H241.468V0Z" fill="#5349BD"/>
</g>
<mask id="mask2_516_15220" style="mask-type:luminance" maskUnits="userSpaceOnUse" x="174" y="0" width="67" height="43">
<path d="M186.227 39.9316V27.0759L192.171 23.644V41.4463C190.122 41.0228 188.141 40.5179 186.227 39.9316ZM174.098 34.6285V20.0717L207.422 0.832199L240.746 20.0717V26.9361L207.422 7.69417L180.042 23.5042V37.6716C177.994 36.7921 176.008 35.7754 174.098 34.6285ZM198.355 20.0717L204.299 16.6373V42.9077C202.281 42.8278 200.299 42.6725 198.355 42.4419V20.0717Z" fill="white"/>
</mask>
<g mask="url(#mask2_516_15220)">
<path d="M240.747 0.832153H174.098V42.9095H240.747V0.832153Z" fill="#5349BD"/>
</g>
<mask id="mask3_516_15220" style="mask-type:luminance" maskUnits="userSpaceOnUse" x="210" y="16" width="31" height="27">
<path d="M210.514 42.9114V16.6223L240.746 34.0738V34.6253C238.836 35.7723 236.85 36.789 234.802 37.6685V37.5058L228.618 33.9353V39.9285C226.706 40.5114 224.725 41.0163 222.674 41.4432V30.5065L216.459 26.9181V42.4474C214.517 42.6752 212.536 42.8298 210.514 42.9114Z" fill="white"/>
</mask>
<g mask="url(#mask3_516_15220)">
<path d="M240.747 16.6223H210.515V42.9114H240.747V16.6223Z" fill="#675AE7"/>
</g>
</svg>
