<svg width="47" height="54" viewBox="0 0 47 54" fill="none" xmlns="http://www.w3.org/2000/svg">
<mask id="mask0_526_15519" style="mask-type:luminance" maskUnits="userSpaceOnUse" x="0" y="10" width="47" height="44">
<path d="M29.997 40.3951L24.9392 43.3153V10.5286L46.6303 23.052V40.3828L23.3149 53.844L0 40.3828V34.5424L23.3149 48.0032L41.572 37.4626V25.9723L38.3239 24.097V35.5874L33.266 38.5076V21.1768L29.997 19.2893V40.3951Z" fill="white"/>
</mask>
<g mask="url(#mask0_526_15519)">
<path d="M46.6308 10.5287H0.000488281V53.844H46.6308V10.5287Z" fill="#675AE7"/>
</g>
<mask id="mask1_526_15519" style="mask-type:luminance" maskUnits="userSpaceOnUse" x="0" y="0" width="47" height="44">
<path d="M16.612 13.4612L21.6702 10.5406V43.303L0 30.792V13.4612L23.3149 0L46.6303 13.4612V19.3017L23.3149 5.84043L5.05827 16.3814V27.8718L8.30597 29.747V18.2567L13.3642 15.336V32.6672L16.612 34.5424V13.4612Z" fill="white"/>
</mask>
<g mask="url(#mask1_526_15519)">
<path d="M46.6308 0H0.000488281V43.303H46.6308V0Z" fill="#5349BD"/>
</g>
<mask id="mask2_526_15519" style="mask-type:luminance" maskUnits="userSpaceOnUse" x="0" y="0" width="47" height="30">
<path d="M8.79957 27.3465V18.5425L12.8703 16.1922V28.3838C11.4676 28.0938 10.1107 27.748 8.79957 27.3465ZM0.493164 23.7147V13.7458L23.3147 0.569923L46.1363 13.7458V18.4468L23.3147 5.26923L4.56428 16.0965V25.7988C3.1619 25.1965 1.80178 24.5002 0.493164 23.7147ZM17.1055 13.7458L21.1762 11.3938V29.3846C19.794 29.3299 18.4371 29.2235 17.1055 29.0656V13.7458Z" fill="white"/>
</mask>
<g mask="url(#mask2_526_15519)">
<path d="M46.1368 0.569893H0.493652V29.3858H46.1368V0.569893Z" fill="#5349BD"/>
</g>
<mask id="mask3_526_15519" style="mask-type:luminance" maskUnits="userSpaceOnUse" x="25" y="11" width="22" height="19">
<path d="M25.4331 29.3871V11.3835L46.137 23.3349V23.7126C44.8286 24.498 43.4686 25.1943 42.0663 25.7966V25.6852L37.831 23.24V27.3443C36.5219 27.7436 35.165 28.0893 33.7604 28.3817V20.8919L29.5042 18.4344V29.0694C28.1744 29.2254 26.8174 29.3313 25.4331 29.3871Z" fill="white"/>
</mask>
<g mask="url(#mask3_526_15519)">
<path d="M46.137 11.3835H25.4331V29.3871H46.137V11.3835Z" fill="#675AE7"/>
</g>
</svg>
