<svg width="276" height="130" viewBox="0 0 276 130" fill="none" xmlns="http://www.w3.org/2000/svg">
<path d="M36.544 107.083C29.5893 108.662 23.8507 108 19.328 105.099C14.848 102.24 12.096 97.6965 11.072 91.4671C10.048 85.2805 10.9867 78.2191 13.888 70.2831L24.96 74.6991C23.296 79.4778 22.528 83.3605 22.656 86.3471C22.784 89.3338 23.7653 91.4031 25.6 92.5551C27.4773 93.7071 30.1867 93.9631 33.728 93.3231C35.6053 92.9818 37.184 92.7045 38.464 92.4911C39.744 92.2778 41.1307 92.0645 42.624 91.8511C43.4347 91.7658 44.2453 91.6378 45.056 91.4671C44.9707 91.4671 44.9067 91.4458 44.864 91.4031C44.8213 91.4031 44.7573 91.4031 44.672 91.4031C44.16 91.2751 43.52 91.1045 42.752 90.8911C41.984 90.6778 41.2373 90.4431 40.512 90.1871C36.7573 89.1631 33.8987 87.9685 31.936 86.6031C29.9733 85.1951 28.736 83.3818 28.224 81.1631C27.7547 78.9445 28.0107 76.1071 28.992 72.6511C30.016 69.1525 31.616 66.1231 33.792 63.5631C35.968 61.0031 38.528 59.2111 41.472 58.1871C44.4587 57.1205 47.552 57.0351 50.752 57.9311L55.232 59.2111L52.224 71.5631L48.192 70.4751C46.4853 70.0058 45.056 70.0485 43.904 70.6031C42.7947 71.1578 41.9413 71.9258 41.344 72.9071C40.7893 73.8458 40.3413 74.8485 40 75.9151C40.1707 76.2991 40.3413 76.5978 40.512 76.8111C40.6827 77.0245 40.9813 77.2378 41.408 77.4511C41.8773 77.6645 42.6453 77.9418 43.712 78.2831H43.776L45.632 78.9231C48.1067 79.7338 49.9627 80.4591 51.2 81.0991C52.48 81.7391 53.504 82.5925 54.272 83.6591C55.0827 84.7258 55.6373 86.1765 55.936 88.0111C56.448 91.7658 56.0213 94.8591 54.656 97.2911C53.3333 99.7658 51.2 101.728 48.256 103.179C45.312 104.672 41.408 105.974 36.544 107.083ZM78.136 90.5071C74.5947 90.5071 71.736 89.9311 69.56 88.7791C67.4267 87.6271 65.8267 85.8351 64.76 83.4031C63.736 80.9285 63.1387 77.6431 62.968 73.5471L61.752 42.8271L74.104 42.1871L75.32 72.6511V73.1631C75.3627 74.2725 75.448 75.0405 75.576 75.4671C75.704 75.8511 75.9387 76.1071 76.28 76.2351C76.664 76.3631 77.368 76.4271 78.392 76.4271H79.544L80.312 83.4671L79.544 90.5071H78.136ZM78.93 76.4271H84.498C85.6073 76.4271 86.4393 76.3205 86.994 76.1071C87.5487 75.8938 87.8687 75.5311 87.954 75.0191C88.0393 74.4645 87.954 73.7178 87.698 72.7791L85.074 62.9231L96.21 59.5311L99.09 70.1551C100.071 73.8671 100.093 77.2805 99.154 80.3951C98.258 83.5098 96.53 85.9845 93.97 87.8191C91.4527 89.6111 88.338 90.5071 84.626 90.5071H78.93V76.4271ZM78.482 94.9871H88.85V105.355H78.482V94.9871ZM163.5 90.5071C161.068 90.5071 158.807 89.6325 156.716 87.8831C154.668 86.1338 152.919 83.5311 151.468 80.0751C150.06 76.5765 149.057 72.3311 148.46 67.3391L159.596 65.6111C160.108 68.6831 160.599 71.5845 161.068 74.3151C161.239 75.1685 161.473 75.7445 161.772 76.0431C162.113 76.2991 162.647 76.4271 163.372 76.4271H165.612L166.38 83.4671L165.612 90.5071H163.5ZM144.044 107.083C137.303 108.704 131.671 108.064 127.148 105.163C122.625 102.304 119.809 97.7391 118.7 91.4671C117.633 85.2378 118.529 78.1765 121.388 70.2831L132.396 74.6991C130.647 79.6911 129.879 83.7018 130.092 86.7311C130.348 89.7605 131.5 91.7658 133.548 92.7471C135.596 93.7285 138.455 93.7925 142.124 92.9391L143.596 92.6191C146.071 92.0218 147.82 91.4458 148.844 90.8911C149.911 90.3791 150.551 89.7605 150.764 89.0351C151.02 88.2671 151.041 87.1151 150.828 85.5791C149.975 79.4778 149.079 73.3765 148.14 67.2751L159.66 65.4831C160.684 72.3098 161.665 79.1365 162.604 85.9631C163.159 89.8885 162.903 93.1738 161.836 95.8191C160.769 98.4645 158.956 100.619 156.396 102.283C153.879 103.947 150.529 105.334 146.348 106.443L144.044 107.083ZM133.42 59.3391H143.788V69.7071H133.42V59.3391ZM199.295 90.5071C195.498 90.5071 192.127 89.0991 189.183 86.2831C186.239 83.4245 183.636 79.4778 181.375 74.4431L190.335 68.7471C191.7 71.0085 192.81 72.6725 193.663 73.7391C194.516 74.7631 195.348 75.4671 196.159 75.8511C197.012 76.2351 198.058 76.4271 199.295 76.4271H200.703L201.535 83.4671L200.703 90.5071H199.295ZM165.119 76.4271H179.007C179.604 76.4271 180.074 76.3631 180.415 76.2351C180.458 75.9791 180.436 75.7445 180.351 75.5311C180.308 75.2751 180.18 74.9765 179.967 74.6351L166.975 56.2671L169.663 46.0911L193.535 37.3231L197.887 50.3791L177.279 57.9311L179.007 51.5311L190.079 68.1711C191.402 70.1765 192.34 72.2458 192.895 74.3791C193.45 76.4698 193.599 78.4751 193.343 80.3951C193.087 82.2725 192.468 83.9365 191.487 85.3871C190.292 87.0511 188.799 88.3311 187.007 89.2271C185.258 90.0805 183.124 90.5071 180.607 90.5071H165.119V76.4271ZM236.278 90.5071C233.291 90.5071 230.795 89.7178 228.79 88.1391C226.784 86.5605 225.291 84.5551 224.31 82.1231C223.371 79.6485 222.859 76.9818 222.774 74.1231H233.526C233.526 75.0191 233.718 75.6378 234.102 75.9791C234.486 76.3205 235.211 76.4911 236.278 76.4911C237.216 76.4911 237.92 76.3631 238.39 76.1071C238.859 75.8511 239.136 75.4245 239.222 74.8271C239.307 74.1871 239.222 73.3338 238.966 72.2671L236.406 62.6671L247.606 59.5311L250.422 70.1551C251.403 73.6965 251.424 77.0458 250.486 80.2031C249.547 83.3178 247.819 85.8138 245.302 87.6911C242.784 89.5685 239.776 90.5071 236.278 90.5071ZM219.702 90.5071C216.8 90.5071 214.283 89.6538 212.15 87.9471C210.059 86.1978 208.502 84.0431 207.478 81.4831C206.496 78.8805 206.112 76.4271 206.326 74.1231H216.95C216.95 74.9765 217.142 75.5951 217.526 75.9791C217.91 76.3205 218.635 76.4911 219.702 76.4911C220.939 76.4911 221.728 76.3418 222.07 76.0431C222.454 75.7445 222.646 75.1045 222.646 74.1231V66.3791H233.526V75.9151C233.526 78.4325 232.971 80.8218 231.862 83.0831C230.752 85.3018 229.152 87.0938 227.062 88.4591C224.971 89.8245 222.518 90.5071 219.702 90.5071ZM200.117 76.4271H203.126C204.32 76.4271 205.11 76.2565 205.494 75.9151C205.878 75.5738 206.07 74.9765 206.07 74.1231V66.3791H216.95V75.9151C216.95 78.4325 216.395 80.8218 215.286 83.0831C214.176 85.3018 212.576 87.0938 210.486 88.4591C208.438 89.8245 206.048 90.5071 203.318 90.5071H200.117V76.4271ZM257.778 42.8271L270.322 42.1871L272.114 90.3151L259.57 90.8911L257.778 42.8271Z" fill="#1B1645"/>
<g clip-path="url(#clip0_437_2273)">
<line y1="-0.6" x2="53.3128" y2="-0.6" transform="matrix(0.306062 0.952106 -0.95122 0.308221 3.92871 64.8541)" stroke="white" stroke-width="1.2"/>
<line y1="-0.25" x2="53.3128" y2="-0.25" transform="matrix(0.306062 0.952106 -0.95122 0.308221 5.65979 64.2184)" stroke="white" stroke-width="0.5"/>
<line y1="-0.6" x2="53.3128" y2="-0.6" transform="matrix(0.306062 0.952106 -0.95122 0.308221 7.39087 63.5828)" stroke="white" stroke-width="1.2"/>
<line y1="-0.6" x2="53.3128" y2="-0.6" transform="matrix(0.306062 0.952106 -0.95122 0.308221 9.12189 62.9471)" stroke="white" stroke-width="1.2"/>
<line y1="-0.05" x2="53.3128" y2="-0.05" transform="matrix(0.306062 0.952106 -0.95122 0.308221 10.853 62.3115)" stroke="white" stroke-width="0.1"/>
<line y1="-0.05" x2="53.3128" y2="-0.05" transform="matrix(0.306062 0.952106 -0.95122 0.308221 12.584 61.6759)" stroke="white" stroke-width="0.1"/>
<line y1="-0.5" x2="53.3128" y2="-0.5" transform="matrix(0.306062 0.952106 -0.95122 0.308221 14.3151 61.0402)" stroke="white"/>
<line y1="-0.05" x2="53.3128" y2="-0.05" transform="matrix(0.306062 0.952106 -0.95122 0.308221 16.0461 60.4046)" stroke="white" stroke-width="0.1"/>
<line y1="-0.5" x2="53.3128" y2="-0.5" transform="matrix(0.306062 0.952106 -0.95122 0.308221 17.7772 59.7689)" stroke="white"/>
<line y1="-0.25" x2="53.3128" y2="-0.25" transform="matrix(0.306062 0.952106 -0.95122 0.308221 19.5083 59.1333)" stroke="white" stroke-width="0.5"/>
<line y1="-0.15" x2="53.3128" y2="-0.15" transform="matrix(0.306062 0.952106 -0.95122 0.308221 21.2394 58.4977)" stroke="white" stroke-width="0.3"/>
<line y1="-0.05" x2="53.3128" y2="-0.05" transform="matrix(0.306062 0.952106 -0.95122 0.308221 22.9704 57.862)" stroke="white" stroke-width="0.1"/>
<line y1="-0.5" x2="53.3128" y2="-0.5" transform="matrix(0.306062 0.952106 -0.95122 0.308221 24.7015 57.2264)" stroke="white"/>
<line y1="-0.05" x2="53.3128" y2="-0.05" transform="matrix(0.306062 0.952106 -0.95122 0.308221 26.4326 56.5907)" stroke="white" stroke-width="0.1"/>
<line y1="-0.25" x2="53.3128" y2="-0.25" transform="matrix(0.306062 0.952106 -0.95122 0.308221 28.1636 55.9551)" stroke="white" stroke-width="0.5"/>
<line y1="-0.05" x2="53.3128" y2="-0.05" transform="matrix(0.306062 0.952106 -0.95122 0.308221 29.8947 55.3194)" stroke="white" stroke-width="0.1"/>
<line y1="-0.6" x2="53.3128" y2="-0.6" transform="matrix(0.306062 0.952106 -0.95122 0.308221 31.6257 54.6838)" stroke="white" stroke-width="1.2"/>
<line y1="-0.05" x2="53.3128" y2="-0.05" transform="matrix(0.306062 0.952106 -0.95122 0.308221 33.3568 54.0482)" stroke="white" stroke-width="0.1"/>
<line y1="-0.6" x2="53.3128" y2="-0.6" transform="matrix(0.306062 0.952106 -0.95122 0.308221 35.0878 53.4125)" stroke="white" stroke-width="1.2"/>
<line y1="-0.15" x2="53.3128" y2="-0.15" transform="matrix(0.306062 0.952106 -0.95122 0.308221 36.8189 52.7769)" stroke="white" stroke-width="0.3"/>
<line y1="-0.25" x2="53.3128" y2="-0.25" transform="matrix(0.306062 0.952106 -0.95122 0.308221 38.55 52.1412)" stroke="white" stroke-width="0.5"/>
<line y1="-0.6" x2="53.3128" y2="-0.6" transform="matrix(0.306062 0.952106 -0.95122 0.308221 40.2811 51.5056)" stroke="white" stroke-width="1.2"/>
<line y1="-0.15" x2="53.3128" y2="-0.15" transform="matrix(0.306062 0.952106 -0.95122 0.308221 42.0121 50.87)" stroke="white" stroke-width="0.3"/>
<line y1="-0.6" x2="53.3128" y2="-0.6" transform="matrix(0.306062 0.952106 -0.95122 0.308221 43.7432 50.2343)" stroke="white" stroke-width="1.2"/>
<line y1="-0.05" x2="53.3128" y2="-0.05" transform="matrix(0.306062 0.952106 -0.95122 0.308221 45.4742 49.5987)" stroke="white" stroke-width="0.1"/>
<line y1="-0.15" x2="53.3128" y2="-0.15" transform="matrix(0.306062 0.952106 -0.95122 0.308221 47.2053 48.963)" stroke="white" stroke-width="0.3"/>
<line y1="-0.6" x2="53.3128" y2="-0.6" transform="matrix(0.306062 0.952106 -0.95122 0.308221 48.9363 48.3274)" stroke="white" stroke-width="1.2"/>
<line y1="-0.5" x2="53.3128" y2="-0.5" transform="matrix(0.306062 0.952106 -0.95122 0.308221 50.6674 47.6917)" stroke="white"/>
<line y1="-0.05" x2="53.3128" y2="-0.05" transform="matrix(0.306062 0.952106 -0.95122 0.308221 52.3985 47.0561)" stroke="white" stroke-width="0.1"/>
<line y1="-0.6" x2="53.3128" y2="-0.6" transform="matrix(0.306062 0.952106 -0.95122 0.308221 54.1296 46.4205)" stroke="white" stroke-width="1.2"/>
<line y1="-0.4" x2="53.3128" y2="-0.4" transform="matrix(0.306062 0.952106 -0.95122 0.308221 55.8606 45.7848)" stroke="white" stroke-width="0.8"/>
<line y1="-0.6" x2="53.3128" y2="-0.6" transform="matrix(0.306062 0.952106 -0.95122 0.308221 57.5917 45.1492)" stroke="white" stroke-width="1.2"/>
<line y1="-0.05" x2="53.3128" y2="-0.05" transform="matrix(0.306062 0.952106 -0.95122 0.308221 59.3228 44.5135)" stroke="white" stroke-width="0.1"/>
<line y1="-0.05" x2="53.3128" y2="-0.05" transform="matrix(0.306062 0.952106 -0.95122 0.308221 61.0538 43.8779)" stroke="white" stroke-width="0.1"/>
<line y1="-0.6" x2="53.3128" y2="-0.6" transform="matrix(0.306062 0.952106 -0.95122 0.308221 62.7849 43.2422)" stroke="white" stroke-width="1.2"/>
<line y1="-0.05" x2="53.3128" y2="-0.05" transform="matrix(0.306062 0.952106 -0.95122 0.308221 64.5159 42.6066)" stroke="white" stroke-width="0.1"/>
<line y1="-0.4" x2="53.3128" y2="-0.4" transform="matrix(0.306062 0.952106 -0.95122 0.308221 66.247 41.971)" stroke="white" stroke-width="0.8"/>
<line y1="-0.4" x2="53.3128" y2="-0.4" transform="matrix(0.306062 0.952106 -0.95122 0.308221 67.9781 41.3353)" stroke="white" stroke-width="0.8"/>
<line y1="-0.4" x2="53.3128" y2="-0.4" transform="matrix(0.306062 0.952106 -0.95122 0.308221 69.7092 40.6997)" stroke="white" stroke-width="0.8"/>
<line y1="-0.25" x2="53.3128" y2="-0.25" transform="matrix(0.306062 0.952106 -0.95122 0.308221 71.4402 40.064)" stroke="white" stroke-width="0.5"/>
<line y1="-0.4" x2="53.3128" y2="-0.4" transform="matrix(0.306062 0.952106 -0.95122 0.308221 73.1713 39.4284)" stroke="white" stroke-width="0.8"/>
<line y1="-0.15" x2="53.3128" y2="-0.15" transform="matrix(0.306062 0.952106 -0.95122 0.308221 74.9023 38.7928)" stroke="white" stroke-width="0.3"/>
<line y1="-0.4" x2="53.3128" y2="-0.4" transform="matrix(0.306062 0.952106 -0.95122 0.308221 76.6334 38.1571)" stroke="white" stroke-width="0.8"/>
<line y1="-0.5" x2="53.3128" y2="-0.5" transform="matrix(0.306062 0.952106 -0.95122 0.308221 78.3644 37.5215)" stroke="white"/>
<line y1="-0.15" x2="53.3128" y2="-0.15" transform="matrix(0.306062 0.952106 -0.95122 0.308221 80.0955 36.8858)" stroke="white" stroke-width="0.3"/>
<line y1="-0.4" x2="53.3128" y2="-0.4" transform="matrix(0.306062 0.952106 -0.95122 0.308221 81.8266 36.2502)" stroke="white" stroke-width="0.8"/>
<line y1="-0.15" x2="53.3128" y2="-0.15" transform="matrix(0.306062 0.952106 -0.95122 0.308221 83.5577 35.6145)" stroke="white" stroke-width="0.3"/>
<line y1="-0.25" x2="53.3128" y2="-0.25" transform="matrix(0.306062 0.952106 -0.95122 0.308221 85.2887 34.9789)" stroke="white" stroke-width="0.5"/>
<line y1="-0.4" x2="53.3128" y2="-0.4" transform="matrix(0.306062 0.952106 -0.95122 0.308221 87.0198 34.3433)" stroke="white" stroke-width="0.8"/>
<line y1="-0.4" x2="53.3128" y2="-0.4" transform="matrix(0.306062 0.952106 -0.95122 0.308221 88.7509 33.7076)" stroke="white" stroke-width="0.8"/>
<line y1="-0.05" x2="53.3128" y2="-0.05" transform="matrix(0.306062 0.952106 -0.95122 0.308221 90.4819 33.072)" stroke="white" stroke-width="0.1"/>
<line y1="-0.4" x2="53.3128" y2="-0.4" transform="matrix(0.306062 0.952106 -0.95122 0.308221 92.213 32.4363)" stroke="white" stroke-width="0.8"/>
<line y1="-0.4" x2="53.3128" y2="-0.4" transform="matrix(0.306062 0.952106 -0.95122 0.308221 93.944 31.8007)" stroke="white" stroke-width="0.8"/>
<line y1="-0.4" x2="53.3128" y2="-0.4" transform="matrix(0.306062 0.952106 -0.95122 0.308221 95.6751 31.165)" stroke="white" stroke-width="0.8"/>
<line y1="-0.4" x2="53.3128" y2="-0.4" transform="matrix(0.306062 0.952106 -0.95122 0.308221 97.4062 30.5294)" stroke="white" stroke-width="0.8"/>
<line y1="-0.25" x2="53.3128" y2="-0.25" transform="matrix(0.306062 0.952106 -0.95122 0.308221 99.1372 29.8938)" stroke="white" stroke-width="0.5"/>
<line y1="-0.35" x2="53.3128" y2="-0.35" transform="matrix(0.306062 0.952106 -0.95122 0.308221 100.868 29.2581)" stroke="white" stroke-width="0.7"/>
<line y1="-0.25" x2="53.3128" y2="-0.25" transform="matrix(0.306062 0.952106 -0.95122 0.308221 102.599 28.6225)" stroke="white" stroke-width="0.5"/>
<line y1="-0.25" x2="53.3128" y2="-0.25" transform="matrix(0.306062 0.952106 -0.95122 0.308221 104.33 27.9868)" stroke="white" stroke-width="0.5"/>
<line y1="-0.25" x2="53.3128" y2="-0.25" transform="matrix(0.306062 0.952106 -0.95122 0.308221 106.061 27.3512)" stroke="white" stroke-width="0.5"/>
<line y1="-0.25" x2="53.3128" y2="-0.25" transform="matrix(0.306062 0.952106 -0.95122 0.308221 107.793 26.7155)" stroke="white" stroke-width="0.5"/>
<line y1="-0.25" x2="53.3128" y2="-0.25" transform="matrix(0.306062 0.952106 -0.95122 0.308221 109.524 26.0799)" stroke="white" stroke-width="0.5"/>
<line y1="-0.25" x2="53.3128" y2="-0.25" transform="matrix(0.306062 0.952106 -0.95122 0.308221 111.255 25.4443)" stroke="white" stroke-width="0.5"/>
<line y1="-0.25" x2="53.3128" y2="-0.25" transform="matrix(0.306062 0.952106 -0.95122 0.308221 112.986 24.8086)" stroke="white" stroke-width="0.5"/>
<line y1="-0.25" x2="53.3128" y2="-0.25" transform="matrix(0.306062 0.952106 -0.95122 0.308221 114.717 24.173)" stroke="white" stroke-width="0.5"/>
<line y1="-0.6" x2="53.3128" y2="-0.6" transform="matrix(0.306062 0.952106 -0.95122 0.308221 116.448 23.5374)" stroke="white" stroke-width="1.2"/>
<line y1="-0.15" x2="53.3128" y2="-0.15" transform="matrix(0.306062 0.952106 -0.95122 0.308221 118.179 22.9017)" stroke="white" stroke-width="0.3"/>
<line y1="-0.15" x2="53.3128" y2="-0.15" transform="matrix(0.306062 0.952106 -0.95122 0.308221 119.91 22.2661)" stroke="white" stroke-width="0.3"/>
<line y1="-0.4" x2="53.3128" y2="-0.4" transform="matrix(0.306062 0.952106 -0.95122 0.308221 121.641 21.6304)" stroke="white" stroke-width="0.8"/>
<line y1="-0.15" x2="53.3128" y2="-0.15" transform="matrix(0.306062 0.952106 -0.95122 0.308221 123.372 20.9948)" stroke="white" stroke-width="0.3"/>
<line y1="-0.05" x2="53.3128" y2="-0.05" transform="matrix(0.306062 0.952106 -0.95122 0.308221 125.103 20.3591)" stroke="white" stroke-width="0.1"/>
<line y1="-0.4" x2="53.3128" y2="-0.4" transform="matrix(0.306062 0.952106 -0.95122 0.308221 126.834 19.7235)" stroke="white" stroke-width="0.8"/>
<line y1="-0.15" x2="53.3128" y2="-0.15" transform="matrix(0.306062 0.952106 -0.95122 0.308221 128.565 19.0879)" stroke="white" stroke-width="0.3"/>
<line y1="-0.35" x2="53.3128" y2="-0.35" transform="matrix(0.306062 0.952106 -0.95122 0.308221 130.296 18.4522)" stroke="white" stroke-width="0.7"/>
<line y1="-0.15" x2="53.3128" y2="-0.15" transform="matrix(0.306062 0.952106 -0.95122 0.308221 132.027 17.8166)" stroke="white" stroke-width="0.3"/>
<line y1="-0.4" x2="53.3128" y2="-0.4" transform="matrix(0.306062 0.952106 -0.95122 0.308221 133.758 17.1809)" stroke="white" stroke-width="0.8"/>
<line y1="-0.4" x2="53.3128" y2="-0.4" transform="matrix(0.306062 0.952106 -0.95122 0.308221 135.49 16.5453)" stroke="white" stroke-width="0.8"/>
<line y1="-0.15" x2="53.3128" y2="-0.15" transform="matrix(0.306062 0.952106 -0.95122 0.308221 137.221 15.9097)" stroke="white" stroke-width="0.3"/>
<line y1="-0.15" x2="53.3128" y2="-0.15" transform="matrix(0.306062 0.952106 -0.95122 0.308221 138.952 15.274)" stroke="white" stroke-width="0.3"/>
<line y1="-0.35" x2="53.3128" y2="-0.35" transform="matrix(0.306062 0.952106 -0.95122 0.308221 140.683 14.6384)" stroke="white" stroke-width="0.7"/>
<line y1="-0.35" x2="53.3128" y2="-0.35" transform="matrix(0.306062 0.952106 -0.95122 0.308221 142.414 14.0027)" stroke="white" stroke-width="0.7"/>
<line y1="-0.35" x2="53.3128" y2="-0.35" transform="matrix(0.306062 0.952106 -0.95122 0.308221 144.145 13.3671)" stroke="white" stroke-width="0.7"/>
<line y1="-0.35" x2="53.3128" y2="-0.35" transform="matrix(0.306062 0.952106 -0.95122 0.308221 145.876 12.7314)" stroke="white" stroke-width="0.7"/>
<line y1="-0.15" x2="53.3128" y2="-0.15" transform="matrix(0.306062 0.952106 -0.95122 0.308221 147.607 12.0958)" stroke="white" stroke-width="0.3"/>
<line y1="-0.35" x2="53.3128" y2="-0.35" transform="matrix(0.306062 0.952106 -0.95122 0.308221 149.338 11.4602)" stroke="white" stroke-width="0.7"/>
<line y1="-0.05" x2="53.3128" y2="-0.05" transform="matrix(0.306062 0.952106 -0.95122 0.308221 151.069 10.8246)" stroke="white" stroke-width="0.1"/>
<line y1="-0.5" x2="53.3128" y2="-0.5" transform="matrix(0.306062 0.952106 -0.95122 0.308221 152.8 10.1889)" stroke="white"/>
<line y1="-0.25" x2="53.3128" y2="-0.25" transform="matrix(0.306062 0.952106 -0.95122 0.308221 154.531 9.55325)" stroke="white" stroke-width="0.5"/>
<line y1="-0.35" x2="53.3128" y2="-0.35" transform="matrix(0.306062 0.952106 -0.95122 0.308221 156.262 8.91763)" stroke="white" stroke-width="0.7"/>
<line y1="-0.15" x2="53.3128" y2="-0.15" transform="matrix(0.306062 0.952106 -0.95122 0.308221 157.993 8.28198)" stroke="white" stroke-width="0.3"/>
<line y1="-0.05" x2="53.3128" y2="-0.05" transform="matrix(0.306062 0.952106 -0.95122 0.308221 159.724 7.64633)" stroke="white" stroke-width="0.1"/>
<line y1="-0.35" x2="53.3128" y2="-0.35" transform="matrix(0.306062 0.952106 -0.95122 0.308221 161.455 7.01071)" stroke="white" stroke-width="0.7"/>
<line y1="-0.6" x2="53.3128" y2="-0.6" transform="matrix(0.306062 0.952106 -0.95122 0.308221 163.186 6.37506)" stroke="white" stroke-width="1.2"/>
<line y1="-0.15" x2="53.3128" y2="-0.15" transform="matrix(0.306062 0.952106 -0.95122 0.308221 164.917 5.73941)" stroke="white" stroke-width="0.3"/>
<line y1="-0.15" x2="53.3128" y2="-0.15" transform="matrix(0.306062 0.952106 -0.95122 0.308221 166.649 5.10379)" stroke="white" stroke-width="0.3"/>
<line y1="-0.35" x2="53.3128" y2="-0.35" transform="matrix(0.306062 0.952106 -0.95122 0.308221 168.38 4.46814)" stroke="white" stroke-width="0.7"/>
<line y1="-0.35" x2="53.3128" y2="-0.35" transform="matrix(0.306062 0.952106 -0.95122 0.308221 170.111 3.83252)" stroke="white" stroke-width="0.7"/>
<line y1="-0.15" x2="53.3128" y2="-0.15" transform="matrix(0.306062 0.952106 -0.95122 0.308221 171.842 3.19687)" stroke="white" stroke-width="0.3"/>
<line y1="-0.35" x2="53.3128" y2="-0.35" transform="matrix(0.306062 0.952106 -0.95122 0.308221 173.573 2.56122)" stroke="white" stroke-width="0.7"/>
<line y1="-0.25" x2="53.3128" y2="-0.25" transform="matrix(0.306062 0.952106 -0.95122 0.308221 175.304 1.9256)" stroke="white" stroke-width="0.5"/>
<line y1="-0.35" x2="53.3128" y2="-0.35" transform="matrix(0.306062 0.952106 -0.95122 0.308221 177.035 1.28995)" stroke="white" stroke-width="0.7"/>
<line y1="-0.15" x2="53.3128" y2="-0.15" transform="matrix(0.306062 0.952106 -0.95122 0.308221 178.766 0.654297)" stroke="white" stroke-width="0.3"/>
<line y1="-0.35" x2="53.3128" y2="-0.35" transform="matrix(0.306062 0.952106 -0.95122 0.308221 180.497 0.0186768)" stroke="white" stroke-width="0.7"/>
</g>
<g filter="url(#filter0_d_437_2273)">
<path d="M6.97473 121L270.022 25" stroke="#EF4056" stroke-width="2" stroke-linecap="round"/>
</g>
<defs>
<filter id="filter0_d_437_2273" x="1.97522" y="23.999" width="273.046" height="106.002" filterUnits="userSpaceOnUse" color-interpolation-filters="sRGB">
<feFlood flood-opacity="0" result="BackgroundImageFix"/>
<feColorMatrix in="SourceAlpha" type="matrix" values="0 0 0 0 0 0 0 0 0 0 0 0 0 0 0 0 0 0 127 0" result="hardAlpha"/>
<feOffset dy="4"/>
<feGaussianBlur stdDeviation="2"/>
<feComposite in2="hardAlpha" operator="out"/>
<feColorMatrix type="matrix" values="0 0 0 0 0.937255 0 0 0 0 0.25098 0 0 0 0 0.337255 0 0 0 0.44 0"/>
<feBlend mode="normal" in2="BackgroundImageFix" result="effect1_dropShadow_437_2273"/>
<feBlend mode="normal" in="SourceGraphic" in2="effect1_dropShadow_437_2273" result="shape"/>
</filter>
<clipPath id="clip0_437_2273">
<rect width="190.151" height="53.3128" fill="white" transform="matrix(0.938715 -0.344694 0.342502 0.939517 1.9928 65.5438)"/>
</clipPath>
</defs>
</svg>
